<svg xmlns="http://www.w3.org/2000/svg" version="1.1" xmlns:xlink="http://www.w3.org/1999/xlink" xmlns:svgjs="http://svgjs.dev/svgjs" width="2000" height="2024" viewBox="0 0 2000 2024"><g transform="matrix(1,0,0,1,1.320635889998016,0.8194331983804659)"><svg viewBox="0 0 244 247" data-background-color="#ffffff" preserveAspectRatio="xMidYMid meet" height="2024" width="2000" xmlns="http://www.w3.org/2000/svg" xmlns:xlink="http://www.w3.org/1999/xlink"><g id="tight-bounds" transform="matrix(1,0,0,1,-0.16111757857976272,-0.09999999999999432)"><svg viewBox="0 0 244.3222351571595 247.2" height="247.2" width="244.3222351571595"><g><svg viewBox="0 0 244.3222351571595 247.2" height="247.2" width="244.3222351571595"><g><svg viewBox="0 0 244.3222351571595 247.2" height="247.2" width="244.3222351571595"><g><svg viewBox="0 0 244.3222351571595 247.2" height="247.2" width="244.3222351571595"><g><svg viewBox="0 0 244.3222351571595 247.2" height="247.2" width="244.3222351571595"><g transform="matrix(1,0,0,1,0,0)"><svg width="244.3222351571595" viewBox="1.0499999523162842 -40.20000076293945 42.45000076293945 42.95000076293945" height="247.2" data-palette-color="#c10000"><path d="M24.6-18.75L24.6-18.75 19.25-18.8Q12.65-18.8 8.95-15.6L8.95-15.6Q4.6-11.9 4.6-7L4.6-7Q4.6-4.7 5.68-2.78 6.75-0.85 9.53 0.4 12.3 1.65 17.03 1.65 21.75 1.65 27-0.35 32.25-2.35 35.85-5.15L35.85-5.15Q39.95-8.35 39.95-10.75L39.95-10.75Q39.95-11.9 38.75-12.18 37.55-12.45 37.5-12.8L37.5-12.8Q37.4-13.25 38.25-13.2 39.1-13.15 39.65-12.85L39.65-12.85Q41.9-11.65 41.9-9.75L41.9-9.75Q41.9-6.95 38.02-3.9 34.15-0.85 28.25 0.95 22.35 2.75 17.2 2.75 12.05 2.75 8.85 1.75L8.85 1.75Q3.2 0 1.5-4.7L1.5-4.7Q1.05-5.9 1.05-7 1.05-8.1 1.45-9.73 1.85-11.35 3.25-13.45 4.65-15.55 7.3-17.35 9.95-19.15 12.98-20.03 16-20.9 18.4-21L18.4-21Q15.9-21.9 14.15-23.5 12.4-25.1 12.4-26.95L12.4-26.95Q12.4-27.1 12.4-27.25L12.4-27.25Q12.75-31.3 16.95-34.52 21.15-37.75 25.75-38.98 30.35-40.2 33.7-40.2L33.7-40.2Q34.75-40.2 35.75-40.1L35.75-40.1Q39.9-39.6 41.7-38.02 43.5-36.45 43.5-34.85L43.5-34.85Q43.5-32.6 40.93-30.53 38.35-28.45 34.7-27.65L34.7-27.65Q33.8-27.45 33.23-27.45 32.65-27.45 32.7-27.75L32.7-27.75Q32.9-28.35 34.4-28.53 35.9-28.7 37.3-29.7L37.3-29.7Q40.1-31.75 40.5-35L40.5-35Q40.5-35.15 40.5-35.3L40.5-35.3Q40.5-36.55 39.3-37.6L39.3-37.6Q37.8-39 34.25-39 30.7-39 26.9-37.88 23.1-36.75 19.9-34.15L19.9-34.15Q16.1-31.05 16.1-27.4L16.1-27.4Q16.1-25.95 16.98-24.75 17.85-23.55 19.53-22.98 21.2-22.4 22.9-22L22.9-22Q26.75-21.2 26.75-19.9L26.75-19.9Q26.75-18.75 24.6-18.75Z" opacity="1" transform="matrix(1,0,0,1,0,0)" fill="#c10000" class="undefined-text-0" data-fill-palette-color="primary" id="text-0"></path></svg></g></svg></g></svg></g></svg></g><g></g></svg></g><defs></defs></svg><rect width="244.3222351571595" height="247.2" fill="none" stroke="none" visibility="hidden"></rect></g></svg></g></svg>